
<svg version="1.1" id="Layer_1" xmlns="http://www.w3.org/2000/svg" xmlns:xlink="http://www.w3.org/1999/xlink" x="0px" y="0px"
	 viewBox="0 0 445.6 165.4" style="enable-background:new 0 0 445.6 165.4;" xml:space="preserve">
	 <title>Simplr</title>
<style type="text/css">
	.st0{fill:#FFFFFF;}
</style>
<g>
	<g>
		<path class="st0" d="M167.1,26.8c0,6.8-5.5,12.3-12.3,12.3s-12.3-5.5-12.3-12.3c0-6.8,5.5-12.3,12.3-12.3S167.1,20,167.1,26.8z
			 M144.1,111.9h20.8V51.7h-20.8V111.9z"/>
		<path class="st0" d="M175.3,51.7H196V58h0.2c4.7-4.7,10.7-8.1,17.2-8.1c8,0,16.8,2.9,21,11c6.3-7.6,13.4-11,19.9-11
			c11,0,23.5,5.5,23.5,22.3v39.6h-20.8v-34c0-6-3.2-11.3-10.6-11.3c-6.6,0-9.4,4.8-9.6,9.4v35.9h-20.8v-34c0-6-3.2-11.3-10.6-11.3
			c-6.9,0-9.6,5.3-9.6,10.1v35.2h-20.8V51.7z"/>
		<path class="st0" d="M327,113.6c-8.1,0-14.8-2.7-19.7-7.5v36.2h-20.8V51.7h20.5v6.8h0.2c4.5-4.9,11.5-8.6,19.7-8.6
			c17.6,0,29.9,14.2,29.9,31.8C357,99.3,344.6,113.6,327,113.6z M320.8,67.6c-8.1,0-14,5.9-14,14.1c0,8.3,6.2,14.2,14,14.2
			c7.9,0,14.1-5.9,14.1-14.2C334.9,73.5,329.3,67.6,320.8,67.6z"/>
		<path class="st0" d="M362.5,11h20.8v100.9h-20.8V11z"/>
		<path class="st0" d="M393.1,51.7h20.8v8.7h0.2c0,0,6.6-10.4,18.4-10.4c7.7,0,13.1,3.8,13.1,3.8l-8.7,17.6c0,0-3.9-3.3-10.8-3.3
			c-10.8,0-12.3,10.7-12.3,12.2v31.7h-20.8V51.7z"/>
	</g>
	<g>
		<path class="st0" d="M100,115c-22.6,0-36.4-12.8-36.4-12.8l11-18.5c0,0,12.9,10.9,23.7,10.9c4.8,0,14-0.5,14-9.5
			c0-7-10.3-10.2-21.8-16c-11.6-5.7-18.4-14.8-18.4-24.9c0-18.1,16-29.6,31.6-29.6c6.4,0,12.1,1.2,16.8,2.8C114.2,7,102.7,0,89.7,0
			H35.9C16.1,0,0,16.1,0,35.9v53.8c0,19.7,16.1,35.9,35.9,35.9h29.5l59.2,39.9l0.4-57.2C118.3,113,109.3,115,100,115z"/>
		<path class="st0" d="M93.7,43.4c0,5.4,9.1,9.3,20.2,14c3.9,1.7,7.9,3.9,11.5,6.7l0-22.3l-0.6-0.4c0,0-9.6-6.7-19.6-6.7
			C97.7,34.8,93.7,38.2,93.7,43.4z"/>
	</g>
</g>
</svg>
